<mxfile host="app.diagrams.net" modified="2020-09-25T13:46:49.731Z" agent="5.0 (Windows NT 10.0; Win64; x64) AppleWebKit/537.36 (KHTML, like Gecko) Chrome/85.0.4183.121 Safari/537.36" etag="kahkW5jRbLKDemg94MHA" version="13.7.5" type="github">
  <diagram id="s1S7hJ7QFh07UfW3mg3C" name="Page-1">
    <mxGraphModel dx="766" dy="1619" grid="1" gridSize="10" guides="1" tooltips="1" connect="1" arrows="1" fold="1" page="1" pageScale="1" pageWidth="827" pageHeight="1169" math="0" shadow="0">
      <root>
        <mxCell id="0" />
        <mxCell id="1" parent="0" />
        <mxCell id="cR23spKQ4IgyFuUHL2Mw-8" style="edgeStyle=orthogonalEdgeStyle;rounded=0;orthogonalLoop=1;jettySize=auto;html=1;entryX=0;entryY=0.5;entryDx=0;entryDy=0;" edge="1" parent="1" source="cR23spKQ4IgyFuUHL2Mw-1" target="cR23spKQ4IgyFuUHL2Mw-2">
          <mxGeometry relative="1" as="geometry" />
        </mxCell>
        <mxCell id="cR23spKQ4IgyFuUHL2Mw-9" style="edgeStyle=orthogonalEdgeStyle;rounded=0;orthogonalLoop=1;jettySize=auto;html=1;entryX=0.5;entryY=0;entryDx=0;entryDy=0;" edge="1" parent="1" source="cR23spKQ4IgyFuUHL2Mw-1" target="cR23spKQ4IgyFuUHL2Mw-3">
          <mxGeometry relative="1" as="geometry" />
        </mxCell>
        <mxCell id="cR23spKQ4IgyFuUHL2Mw-1" value="inicio" style="rounded=1;whiteSpace=wrap;html=1;" vertex="1" parent="1">
          <mxGeometry x="160" y="-330" width="120" height="60" as="geometry" />
        </mxCell>
        <mxCell id="cR23spKQ4IgyFuUHL2Mw-2" value="definir 2 pin&lt;br&gt;definir 2 botones" style="rounded=1;whiteSpace=wrap;html=1;" vertex="1" parent="1">
          <mxGeometry x="320" y="-330" width="120" height="60" as="geometry" />
        </mxCell>
        <mxCell id="cR23spKQ4IgyFuUHL2Mw-10" style="edgeStyle=orthogonalEdgeStyle;rounded=0;orthogonalLoop=1;jettySize=auto;html=1;entryX=0.5;entryY=0;entryDx=0;entryDy=0;" edge="1" parent="1" source="cR23spKQ4IgyFuUHL2Mw-3" target="cR23spKQ4IgyFuUHL2Mw-4">
          <mxGeometry relative="1" as="geometry" />
        </mxCell>
        <mxCell id="cR23spKQ4IgyFuUHL2Mw-3" value="loop" style="rounded=1;whiteSpace=wrap;html=1;" vertex="1" parent="1">
          <mxGeometry x="160" y="-230" width="120" height="60" as="geometry" />
        </mxCell>
        <mxCell id="cR23spKQ4IgyFuUHL2Mw-11" style="edgeStyle=orthogonalEdgeStyle;rounded=0;orthogonalLoop=1;jettySize=auto;html=1;entryX=0;entryY=0.5;entryDx=0;entryDy=0;" edge="1" parent="1" source="cR23spKQ4IgyFuUHL2Mw-4" target="cR23spKQ4IgyFuUHL2Mw-5">
          <mxGeometry relative="1" as="geometry" />
        </mxCell>
        <mxCell id="cR23spKQ4IgyFuUHL2Mw-12" style="edgeStyle=orthogonalEdgeStyle;rounded=0;orthogonalLoop=1;jettySize=auto;html=1;entryX=0.5;entryY=0;entryDx=0;entryDy=0;" edge="1" parent="1" source="cR23spKQ4IgyFuUHL2Mw-4" target="cR23spKQ4IgyFuUHL2Mw-6">
          <mxGeometry relative="1" as="geometry" />
        </mxCell>
        <mxCell id="cR23spKQ4IgyFuUHL2Mw-4" value="presiono boton 1" style="rounded=1;whiteSpace=wrap;html=1;" vertex="1" parent="1">
          <mxGeometry x="160" y="-120" width="120" height="60" as="geometry" />
        </mxCell>
        <mxCell id="cR23spKQ4IgyFuUHL2Mw-5" value="enciende led 1 y led 2" style="rounded=1;whiteSpace=wrap;html=1;" vertex="1" parent="1">
          <mxGeometry x="320" y="-120" width="120" height="60" as="geometry" />
        </mxCell>
        <mxCell id="cR23spKQ4IgyFuUHL2Mw-13" style="edgeStyle=orthogonalEdgeStyle;rounded=0;orthogonalLoop=1;jettySize=auto;html=1;entryX=0;entryY=0.5;entryDx=0;entryDy=0;" edge="1" parent="1" source="cR23spKQ4IgyFuUHL2Mw-6" target="cR23spKQ4IgyFuUHL2Mw-7">
          <mxGeometry relative="1" as="geometry" />
        </mxCell>
        <mxCell id="cR23spKQ4IgyFuUHL2Mw-6" value="presiono boton 2" style="rounded=1;whiteSpace=wrap;html=1;" vertex="1" parent="1">
          <mxGeometry x="160" width="120" height="60" as="geometry" />
        </mxCell>
        <mxCell id="cR23spKQ4IgyFuUHL2Mw-7" value="enciende led 1" style="rounded=1;whiteSpace=wrap;html=1;" vertex="1" parent="1">
          <mxGeometry x="320" width="120" height="60" as="geometry" />
        </mxCell>
      </root>
    </mxGraphModel>
  </diagram>
</mxfile>
